<?xml version="1.0" encoding="utf-8"?>
<!-- Generator: Adobe Illustrator 25.4.1, SVG Export Plug-In . SVG Version: 6.00 Build 0)  -->
<svg version="1.1" id="Capa_1" xmlns="http://www.w3.org/2000/svg" xmlns:xlink="http://www.w3.org/1999/xlink" x="0px" y="0px"
	 viewBox="0 0 571.55 571.55" style="enable-background:new 0 0 571.55 571.55;" xml:space="preserve">
<style type="text/css">
	.st0{fill:#FFFFFF;}
</style>
<g>
	<path class="st0" d="M335.5,343.36c0,11.34,0.13,21.75-0.04,32.16c-0.13,7.74,3.37,11.48,11.13,11.45
		c20.57-0.07,41.14-0.09,61.72-0.07c7.53,0.01,10.55-3.82,10.42-11.11c-0.19-10.64-0.05-21.29-0.05-33.1
		c8.86,0,16.94-0.36,24.98,0.07c26.13,1.39,50.55-2.3,70.61-23.93c0.25,3.62,0.49,5.44,0.49,7.25c0.02,34.1,0.09,68.19-0.01,102.29
		c-0.1,36.03-22.83,58.4-58.65,58.37c-113-0.1-226-0.56-339,0.24c-32.48,0.23-59.6-23.4-58.92-58.58
		c0.69-35.76,0.15-71.54,0.15-110.33c26.91,31.04,61.82,23.73,96.04,24.71c0,10.31-0.04,20.03,0.01,29.75
		c0.06,12.79,1.45,14.3,13.92,14.38c18.32,0.11,36.64,0.15,54.95,0.06c12.46-0.06,14.3-1.99,14.34-14.17
		c0.03-9.02,0.01-18.03,0.04-27.05c0-0.55,0.24-1.1,0.54-2.39C270.19,343.36,302.38,343.36,335.5,343.36z"/>
	<path class="st0" d="M218.59,368.43c-15.34,0-29.89,0-45.12,0c0-22.62,0-44.89,0-67.63c15.09,0,29.85,0,45.12,0
		C218.59,323.41,218.59,345.52,218.59,368.43z"/>
	<path class="st0" d="M399.87,301.02c0,22.47,0,44.57,0,67.23c-15.19,0-29.97,0-45.32,0c0-22.38,0-44.47,0-67.23
		C369.25,301.02,383.99,301.02,399.87,301.02z"/>
	<path class="st0" d="M513.72,200.29c-0.02-2.75-0.88-5.56-1.73-8.22c-7.18-22.38-27.09-37.31-50.7-37.59
		c-0.47-0.01-0.94-0.01-1.41-0.01l0.01-0.01l-4.02-0.02c-4.64-0.04-9.3-0.07-13.96-0.08l-42.43-0.24l0.01-14.51
		c0.01-10.98,0.02-21.66-0.03-32.32c-0.08-14.52-6.43-21.02-20.61-21.07C322.95,86,263.87,85.95,192.9,86.05
		c-12.26,0.02-19.1,7.14-19.24,20.06c-0.06,5.48-0.16,10.54-0.26,15.54c-0.14,6.84-0.27,13.56-0.29,21.05l-0.01,2.88
		c-0.01,2.47-0.01,5.41-0.03,7.82l-0.01,0.69l-41.1,0.2l0.03,0.01c-6.9,0.02-13.78,0.06-20.65,0.18
		c-26.18,0.46-49.07,18.75-51.34,44.66c-2.33,26.51-2.44,53.52-0.19,80.02c1.93,22.77,17.07,38.9,39.53,42.81
		c17.6,3.06,36.15,0.61,55.02,0.61c0-9.02-0.08-18.54,0.02-28.05c0.1-9.54,2.56-12.33,11.83-12.42c19.71-0.19,39.43-0.19,59.14-0.02
		c9.73,0.09,12.11,2.78,12.22,12.81c0.1,9.5,0.02,19,0.02,28.83c32.98,0,65.15,0,97.92,0c0-10.18-0.09-19.71,0.03-29.23
		c0.11-9.47,2.69-12.45,11.85-12.53c20-0.17,40-0.11,60,0.16c8.77,0.12,11.16,2.91,11.27,12.06c0.12,9.53,0.03,19.07,0.03,30
		c15.09,0,29.13,0.29,43.15-0.06c26.57-0.67,49.39-19.06,51.63-45.43C515.69,252.75,513.91,226.45,513.72,200.29z M215.53,153.86
		v0.01l-4.75,0.02l0-0.46c0-2.57-0.02-5.12-0.04-7.64c-0.06-7.41-0.12-14.44,0.3-21.41c0.97-0.53,2.42-1.06,3.08-1.08
		c24.61-0.27,49.66-0.28,73.87-0.28l16.5-0.01c14.15-0.01,28.31-0.01,42.69-0.01l14.48,0v30.89l-4.23-0.02v-0.02
		C310.13,153.86,263.18,153.86,215.53,153.86z"/>
</g>
</svg>
