<?xml version="1.0" encoding="utf-8"?>
<!-- Generator: Adobe Illustrator 25.4.1, SVG Export Plug-In . SVG Version: 6.00 Build 0)  -->
<svg version="1.1" id="Capa_1" xmlns="http://www.w3.org/2000/svg" xmlns:xlink="http://www.w3.org/1999/xlink" x="0px" y="0px"
	 viewBox="0 0 571.55 571.55" style="enable-background:new 0 0 571.55 571.55;" xml:space="preserve">
<style type="text/css">
	.st0{fill:#FFFFFF;}
</style>
<path class="st0" d="M492.65,108.89c-25.8,0-46.71,20.91-46.71,46.71c0,10.57,3.55,20.28,9.47,28.11l-78.07,125.18
	c-3.48-0.83-7.1-1.32-10.84-1.32c-8.64,0-16.7,2.39-23.65,6.48l-61.24-58.96c1.22-4.17,1.91-8.58,1.91-13.14
	c0-25.8-20.91-46.71-46.71-46.71c-25.8,0-46.71,20.91-46.71,46.71c0,8.55,2.34,16.54,6.35,23.43L95.59,371.47
	c-5.23-2.03-10.9-3.18-16.84-3.18c-25.8,0-46.71,20.91-46.71,46.71c0,25.8,20.91,46.71,46.71,46.71c25.8,0,46.71-20.91,46.71-46.71
	c0-6.82-1.49-13.28-4.12-19.11l103.48-108.85c3.84,1.02,7.85,1.61,12,1.61c8.16,0,15.83-2.1,22.5-5.78l62.01,59.7
	c-0.97,3.75-1.54,7.66-1.54,11.71c0,25.8,20.91,46.71,46.71,46.71c25.8,0,46.71-20.91,46.71-46.71c0-9.03-2.61-17.43-7.04-24.58
	l79.79-127.94c2.19,0.32,4.42,0.53,6.7,0.53c25.8,0,46.71-20.91,46.71-46.71S518.45,108.89,492.65,108.89z"/>
</svg>
