<?xml version="1.0" encoding="utf-8"?>
<!-- Generator: Adobe Illustrator 25.4.1, SVG Export Plug-In . SVG Version: 6.00 Build 0)  -->
<svg version="1.1" id="Capa_1" xmlns="http://www.w3.org/2000/svg" xmlns:xlink="http://www.w3.org/1999/xlink" x="0px" y="0px"
	 viewBox="0 0 78.1 194.8" style="enable-background:new 0 0 78.1 194.8;" xml:space="preserve">
<style type="text/css">
	.st0{fill:#010202;}
</style>
<g>
	<path class="st0" d="M76.9,95.9c-3.7-12.1-7.4-24.3-11.1-36.4c-0.8-2.5-1.6-4.9-3.2-7c-3.7-5-8.6-7.7-14.9-7.7
		c-6.1,0-12.2,0-18.2,0c-8,0-14.4,5.8-16.4,12c-4.1,13.1-8,26.3-12,39.4c-0.4,1.2-0.5,2.4-0.3,3.6c0.5,3.3,3.9,5.4,7.1,4.4
		c2.3-0.7,3.4-2.4,4.1-4.6c3.3-11.2,6.7-22.4,10-33.6c0.2-0.6,0.2-1.5,0.7-1.8c0.5-0.3,1.3-0.1,2-0.1c0.8,0,0.8,0,0.6,0.7
		c-2.4,8.2-4.7,16.4-7.1,24.6c-3.6,12.6-7.2,25.1-10.9,37.7c-0.2,0.7-0.2,0.7,0.6,0.7c5.2,0,10.3,0,15.5,0c0.9,0,0.9,0,0.9,0.9
		c0,6.2,0,12.4,0,18.6c0,9.1,0,18.2,0,27.3c0,3.1,1.7,5.3,4.6,6.1c0.2,0.1,0.4,0.1,0.5,0.3c0.7,0,1.5,0,2.2,0
		c0.1-0.1,0.3-0.1,0.4-0.1c2.2-0.1,3.7-1.3,4.7-3.2c0.5-1,0.7-2.1,0.7-3.1c0-14.6,0-29.3,0-43.9c0-0.4,0-0.8,0-1.2
		c0-1.3,0.2-1.5,1.5-1.5c1.7,0,1.8,0.1,1.8,1.8c0,14.9,0,29.7,0,44.5c0,0.4,0,0.9,0,1.3c0.1,1.7,0.9,3.1,2.2,4.3
		c0.9,0.8,2.1,1,3.2,1.2c0.8,0,1.6,0,2.3,0c0.2-0.2,0.5-0.2,0.8-0.3c2-0.6,3.4-1.8,4.1-3.8c0.3-0.9,0.4-1.8,0.4-2.8
		c0-15.2,0-30.3,0-45.5c0-0.9,0-0.9,0.9-0.9c5.2,0,10.3,0,15.4,0c0.9,0,0.9,0,0.7-0.9c-1-3.5-2-7-3.1-10.5
		c-4.3-14.9-8.7-29.8-13-44.7c-0.7-2.3-1.3-4.7-2.1-7.1c-0.2-0.5,0-0.7,0.5-0.6c0.6,0,1.1,0.1,1.7,0c0.6-0.1,0.8,0.2,1,0.8
		c3.3,11,6.5,22,9.8,33c0.4,1.3,0.7,2.7,1.4,3.9c1.2,1.9,2.8,3,5.1,2.8c2.3-0.2,3.9-1.4,4.8-3.5C77.5,99.3,77.4,97.6,76.9,95.9z"/>
	<path class="st0" d="M39,41.3c7.5,0,13.6-6.1,13.6-13.5c0-7.5-6.1-13.6-13.6-13.6c-7.5,0-13.5,6.1-13.5,13.6
		C25.5,35.3,31.5,41.3,39,41.3z"/>
</g>
</svg>
