<?xml version="1.0" encoding="utf-8"?>
<!-- Generator: Adobe Illustrator 25.4.1, SVG Export Plug-In . SVG Version: 6.00 Build 0)  -->
<svg version="1.1" id="Capa_1" xmlns="http://www.w3.org/2000/svg" xmlns:xlink="http://www.w3.org/1999/xlink" x="0px" y="0px"
	 viewBox="0 0 571.55 571.55" style="enable-background:new 0 0 571.55 571.55;" xml:space="preserve">
<style type="text/css">
	.st0{fill:#FFFFFF;}
</style>
<g>
	<path class="st0" d="M162.47,461.26h-55.14c-1.84,0-3.34-1.5-3.34-3.34V102.49c0-1.84,1.5-3.34,3.34-3.34h55.14
		c1.84,0,3.34,1.5,3.34,3.34v355.44C165.8,459.76,164.3,461.26,162.47,461.26z"/>
	<path class="st0" d="M272.36,461.26h-55.14c-1.84,0-3.34-1.5-3.34-3.34V187.99c0-1.84,1.5-3.34,3.34-3.34h55.14
		c1.84,0,3.34,1.5,3.34,3.34v269.94C275.69,459.76,274.19,461.26,272.36,461.26z"/>
	<path class="st0" d="M382.25,461.26h-55.14c-1.84,0-3.34-1.5-3.34-3.34V151.69c0-1.84,1.5-3.34,3.34-3.34h55.14
		c1.84,0,3.34,1.5,3.34,3.34v306.24C385.58,459.76,384.08,461.26,382.25,461.26z"/>
	<path class="st0" d="M485.77,461.26h-55.14c-1.84,0-3.34-1.5-3.34-3.34V308.14c0-1.84,1.5-3.34,3.34-3.34h55.14
		c1.84,0,3.34,1.5,3.34,3.34v149.78C489.11,459.76,487.61,461.26,485.77,461.26z"/>
	<g>
		<path class="st0" d="M510.69,504H62.31c-5.06,0-9.16-4.1-9.16-9.16V78.16c0-5.06,4.1-9.16,9.16-9.16s9.16,4.1,9.16,9.16v407.53
			h439.23c5.06,0,9.16,4.1,9.16,9.16C519.85,499.9,515.75,504,510.69,504z"/>
	</g>
</g>
</svg>
