<?xml version="1.0" encoding="utf-8"?>
<!-- Generator: Adobe Illustrator 25.4.1, SVG Export Plug-In . SVG Version: 6.00 Build 0)  -->
<svg version="1.1" id="Capa_1" xmlns="http://www.w3.org/2000/svg" xmlns:xlink="http://www.w3.org/1999/xlink" x="0px" y="0px"
	 viewBox="0 0 571.55 571.55" style="enable-background:new 0 0 571.55 571.55;" xml:space="preserve">
<style type="text/css">
	.st0{fill:#FFFFFF;}
</style>
<path class="st0" d="M294.47,71c2.75,0,5.5,0,8.25,0c0.51,0.23,1.01,0.52,1.54,0.7c12.98,4.24,19.13,12.84,19.12,26.38
	c-0.06,51-0.06,102-0.06,153.01c0,1.47,0.15,3,0.55,4.4c1,3.45,3.59,5.28,6.99,5.78c3.09,0.45,5.91-0.78,7.3-3.47
	c1.14-2.22,1.76-4.96,1.77-7.47c0.1-43.67,0.06-87.33,0.09-131c0-3.54,0.08-7.1,0.43-10.62c0.97-9.76,9.28-18.54,19.14-20.45
	c10.77-2.09,21.61,2.74,26.49,11.56c3.18,5.74,3.67,11.86,3.66,18.25c-0.09,49.63-0.07,99.25-0.06,148.88
	c0,1.48,0.12,2.98,0.35,4.44c0.55,3.4,3.47,6.03,7.05,6.48c3.23,0.4,6.98-1.52,8.05-4.61c0.73-2.11,1.1-4.46,1.1-6.71
	c0.07-32.44,0.04-64.87,0.06-97.31c0-3.55-0.16-7.15,0.35-10.63c1.39-9.5,6.59-16.46,15.69-19.55c17.7-6.01,33.54,5.96,33.53,24.75
	c-0.06,71.52-0.1,143.04-0.04,214.55c0.02,18.36-1.94,36.31-8.64,53.59c-6.78,17.46-17.07,32.34-31.69,44.07
	c-15.27,12.25-32.94,19.16-52.09,22.45c-33.25,5.72-66.02,3.81-98-7.18c-25.09-8.62-45.51-23.92-60.87-45.53
	c-10.21-14.36-19.73-29.21-29.45-43.91c-16.3-24.62-32.5-49.3-48.77-73.93c-4.44-6.73-8.59-13.51-9.05-21.91
	c-0.63-11.56,3.3-21.12,13.06-27.39c12.99-8.34,31.68-4.43,41.01,8.12c10.37,13.96,20.58,28.05,30.88,42.06
	c1.49,2.02,3.09,3.96,4.63,5.94c0.24-0.12,0.49-0.23,0.73-0.35c0-1.23,0-2.46,0-3.69c0-65.44,0-130.89,0-196.33
	c0-1.72-0.06-3.44,0.01-5.16c0.69-17.76,16.38-29,32.93-23.62c10.26,3.34,16.68,13.09,16.68,25.46c0.01,39.54-0.01,79.08,0,118.62
	c0,1.6-0.22,3.33,0.3,4.77c0.67,1.84,1.69,3.78,3.11,5.06c2.37,2.14,5.28,2.43,8.32,1c3.94-1.86,4.79-5.3,4.79-9.12
	c0-51.23-0.07-102.46-0.03-153.69c0.01-8.1,2.22-15.59,9.06-20.58C286.27,74.53,290.54,73,294.47,71z"/>
</svg>
