<?xml version="1.0" encoding="utf-8"?>
<!-- Generator: Adobe Illustrator 25.4.1, SVG Export Plug-In . SVG Version: 6.00 Build 0)  -->
<svg version="1.1" id="Capa_1" xmlns="http://www.w3.org/2000/svg" xmlns:xlink="http://www.w3.org/1999/xlink" x="0px" y="0px"
	 viewBox="0 0 571.55 571.55" style="enable-background:new 0 0 571.55 571.55;" xml:space="preserve">
<style type="text/css">
	.st0{fill:#FFFFFF;stroke:#FFFFFF;stroke-width:0.5;stroke-miterlimit:10;}
</style>
<g>
	<path class="st0" d="M472.81,192.63c2.78,6.66,1.1,12.07-4.13,16.93c-4.72,4.38-8.92,9.31-13.45,13.9
		c-4.96,5.02-11.79,5.29-16.59,0.82c-4.73-4.41-5-11.47-0.31-16.65c5.1-5.64,10.44-11.07,15.74-16.53c4.08-4.2,9.04-4.19,14.25-2.76
		C469.81,189.77,471.31,191.2,472.81,192.63z"/>
	<path class="st0" d="M255.61,330.63c0.88,12.88-1.12,24.53-10.89,33.86c-9.82,9.38-21.96,9.86-34.87,9.77
		c0.34,11.25,0.74,22.2,0.99,33.15c0.21,9.19-2.29,17.39-8.11,24.8c-12.67,16.14-39.48,16.66-52.83,0.85
		c-6.23-7.38-8.68-15.89-8.87-25.36c-0.5-24.93-1.13-49.86-1.72-74.79c-0.02-1.02-0.1-2.04-0.16-3.28
		c-4.87-0.06-9.61,0.09-14.33-0.22c-17.44-1.15-31.12-13.4-32.35-30.74c-1.27-18.01-1.53-36.15-1.09-54.2
		c0.37-15.16,13.71-29.02,28.88-30.3c15.04-1.27,30.19-1.19,45.3-1.66c18.08-0.56,36.18-0.71,54.23-1.7
		c36.95-2.02,71.58-12.34,103.83-30.49c6.85-3.85,13.45-8.14,20.04-12.42c1.13-0.74,2.02-2.31,2.41-3.67
		c7.43-25.7,36.08-34.81,56.71-17.74c8.2,6.79,11.75,16.14,12,26.71c1.43,61.1,2.96,122.2,4.21,183.31
		c0.47,22.67-16.9,39.03-38.82,36.57c-14.2-1.59-23.85-9.74-28.79-23.16c-0.93-2.53-2.04-4.38-4.45-5.85
		c-27.42-16.75-56.92-27.87-88.62-33.12C257.6,330.82,256.85,330.77,255.61,330.63z M347.93,337.75
		c-1.12-47.82-2.22-95.12-3.33-142.64c-17.17,10.62-35.58,19.24-54.93,25.75c-19.34,6.51-39.23,10.65-59.02,12.62
		c0.55,24.04,1.09,47.51,1.63,71.34C273.21,306.89,311.93,318,347.93,337.75z M206.56,234.95c-0.56-0.04-0.94-0.11-1.32-0.1
		c-26.34,0.6-52.68,1.17-79.02,1.84c-7.79,0.2-12.23,5.03-12.08,13.06c0.26,14.72,0.61,29.44,1.05,44.16
		c0.25,8.36,4.98,12.64,13.47,12.45c20.02-0.44,40.03-0.95,60.05-1.35c6.54-0.13,13.09-0.01,19.44-0.01
		C207.6,281.11,207.09,258.14,206.56,234.95z M392.5,366.63c3.06-2.97,3.4-6.74,3.3-10.73c-1.43-60.45-2.83-120.9-4.25-181.35
		c-0.03-1.29-0.05-2.6-0.29-3.86c-0.88-4.75-3.63-7.94-8.31-9.2c-4.84-1.3-9.39-0.18-11.93,4.09c-1.72,2.89-2.64,6.74-2.58,10.14
		c0.96,48.57,2.15,97.14,3.29,145.71c0.29,12.4,0.55,24.8,0.9,37.2c0.14,5.14,2.63,8.85,7.42,10.79
		C384.4,371.19,389.23,370.02,392.5,366.63z M162.3,329.57c0.14,3.25,0.37,6.85,0.46,10.46c0.56,22.96,1.1,45.92,1.6,68.88
		c0.1,4.54,1.44,8.4,5.47,10.86c3.82,2.34,7.85,2.47,11.78,0.32c4.59-2.51,6.12-6.68,6-11.7c-0.5-20.64-0.99-41.29-1.45-61.93
		c-0.13-5.9-0.19-11.81-0.27-17.47C177.8,329.19,170.25,329.37,162.3,329.57z M208.8,327.66c0.18,4.36,0.41,8.07,0.46,11.79
		c0.05,3.82-0.08,7.63-0.13,11.37c22.3,1.46,24.99-4.96,22.67-22.87C224.42,327.85,216.99,327.76,208.8,327.66z"/>
	<path class="st0" d="M504.42,273.25c-1.71,0.55-4.54,2.13-7.43,2.27c-10.83,0.54-21.68,0.73-32.52,0.82
		c-6.74,0.06-11.72-4.86-11.88-11.25c-0.16-6.43,4.48-11.61,11.24-11.89c11.09-0.45,22.2-0.68,33.3-0.75
		c5.11-0.03,8.86,2.59,10.72,7.44C509.59,264.45,508.45,268.5,504.42,273.25z"/>
	<path class="st0" d="M449.14,330.84c-2.62-2.5-5.28-4.95-7.84-7.5c-5.05-5.03-5.34-12.29-0.75-17c4.52-4.63,11.58-4.65,16.7,0.11
		c5.49,5.1,10.92,10.27,16.26,15.53c4.98,4.92,5.09,11.83,0.45,16.61c-4.44,4.58-11.38,4.73-16.37,0.25
		c-2.88-2.59-5.62-5.34-8.43-8.01C449.14,330.83,449.14,330.84,449.14,330.84z"/>
	<path class="st0" d="M180.98,261.48c3.1,3.98,4.22,7.97,2.82,12.39c-1.39,4.38-4.45,7.62-9.1,7.91
		c-8.88,0.56-17.81,0.86-26.69,0.59c-5.9-0.18-10.07-5.48-10.03-11.31c0.04-5.99,4.03-11,9.98-11.4c8.49-0.58,17.03-0.73,25.54-0.62
		C176,259.07,178.49,260.62,180.98,261.48z"/>
</g>
</svg>
