<?xml version="1.0" encoding="utf-8"?>
<!-- Generator: Adobe Illustrator 25.4.1, SVG Export Plug-In . SVG Version: 6.00 Build 0)  -->
<svg version="1.1" id="Capa_1" xmlns="http://www.w3.org/2000/svg" xmlns:xlink="http://www.w3.org/1999/xlink" x="0px" y="0px"
	 viewBox="0 0 600.5 119.7" style="enable-background:new 0 0 600.5 119.7;" xml:space="preserve">
<style type="text/css">
	.st0{fill:#9D9D9C;}
</style>
<path class="st0" d="M66.1,18.1c-23,0-41.7,18.7-41.7,41.7c0,23,18.7,41.7,41.7,41.7c23,0,41.7-18.7,41.7-41.7
	C107.9,36.8,89.2,18.1,66.1,18.1z M84.9,87.8c-0.8,1.4-2.4,2.3-4,2.3H51.3c-1.7,0-3.2-0.9-4-2.3L32.5,62.2c-0.8-1.4-0.8-3.2,0-4.7
	l14.8-25.6c0.8-1.4,2.4-2.3,4-2.3h29.6c1.7,0,3.2,0.9,4,2.3l14.8,25.6c0.8,1.4,0.8,3.2,0,4.7L84.9,87.8z"/>
<path class="st0" d="M87.8,69.2c-0.6-3.6-1.5-4.5-3.4-5.9c-1.8-1.3-6.7-0.8-9.7-1c-2.4-0.2-6.6-1.9-8.2-2.5
	c1.7,8.2,9,14.4,17.7,14.4c1.5,0,3-0.2,4.4-0.5C88.5,72.7,88.2,71.2,87.8,69.2z"/>
<path class="st0" d="M49,77c-0.8-3.6-0.3-4.8,0.8-6.7s5.9-3.3,8.5-4.7c2.1-1.1,5.3-4.3,6.6-5.5c1.6,8.2-2.7,16.7-10.7,20.1
	c-1.4,0.6-2.8,1-4.3,1.2C49.8,80.5,49.5,79,49,77z"/>
<path class="st0" d="M66.8,60.5c1.8,1.2,8.4,2.8,13,2c4.6-0.8,4.7-5.1,4.5-7c-0.2-1.7-3.1-14.8-3.6-17.2c-8.3,1.7-14.5,9-14.5,17.7
	C66.2,57.6,66.3,59.1,66.8,60.5C66.7,60.5,66.8,60.5,66.8,60.5z"/>
<path class="st0" d="M65,60.8c-1.1,1.8-6.6,5.9-11.2,6.9c-4.6,1.1-6.3-2.9-6.9-4.7c-0.5-1.6-2.9-14.8-3.4-17.2
	c8.3-1.7,16.8,2.6,20.3,10.6C64.5,57.9,64.9,59.3,65,60.8C65.1,60.8,65.1,60.8,65,60.8z"/>
<g>
	<path class="st0" d="M129.9,27.8c5.8,0,9.5,1.1,9.5,12.7c0,10.9-3.4,12.3-9.5,12.3s-9.6-1.1-9.6-12.3
		C120.3,28.9,124.2,27.8,129.9,27.8z M129.9,50.3c5.3,0,7-1.4,7-9.8c0-10.1-2.4-10.2-7-10.2c-4.5,0-7.1,0.1-7.1,10.2
		C122.8,49.1,124.6,50.3,129.9,50.3z"/>
	<path class="st0" d="M142.8,26.2h2.4v9.6c2.2-0.9,5.1-1.3,6.6-1.3c5.1,0,5.9,4.7,5.9,9.3c0,4.1-1,9.1-5.9,9.1
		c-2.3,0-5.7-1.5-6.6-2.2l-0.7,2h-1.8V26.2z M151.8,50.3c2.2,0,3.4-2.2,3.4-6.6c0-5.5-1.2-6.8-3.4-6.8c-2.6,0-4.3,0.3-6.6,0.9v10.9
		C147,49.5,149.2,50.3,151.8,50.3z"/>
	<path class="st0" d="M160.1,39c0-2.8,1.2-4.4,4.6-4.4c1.7,0,7,0.4,8.8,0.5V37h-8.8c-2.2,0-2.2,0.8-2.2,2v1.5c0,1.9,0.9,1.9,2.2,1.9
		h5.3c2.9,0,4.4,1.8,4.4,4.3v1.6c0,3.7-2.2,4.3-4.4,4.3c-1.7,0-7.9-0.5-9.2-0.6v-1.9h9.2c0,0,1.9,0.2,1.9-1.8v-1.6
		c0-1.2-0.4-1.9-1.9-1.9h-5.3c-3.2,0-4.6-0.9-4.6-4.4V39z"/>
	<path class="st0" d="M185.1,34.6c4.2,0,6.8,0.4,6.8,6.3c0,2.6-1.4,4.1-4.6,4.1h-7.5c0,4.2,0.8,5.3,3.4,5.3c3.1,0,5.9,0,8.4-0.3v1.9
		c-2.7,0.8-5.6,0.9-8.4,0.9c-4.5,0-5.9-2.2-5.9-9.2C177.3,35.6,179.6,34.6,185.1,34.6z M187.3,42.6c1.5,0,2.1-0.5,2.1-1.7
		c0-3.5-0.7-3.8-4.3-3.8c-3.8,0-5.4,0-5.4,5.5H187.3z"/>
	<path class="st0" d="M195.2,34.7h1.7l0.7,2.3c2.1-1.2,3.9-2.5,6.7-2.5c1,0,2.1,0.1,2.5,0.3v2.5c-0.4-0.1-1.5-0.2-2.5-0.2
		c-2.7,0-4.1,0.7-6.7,2v13.6h-2.5V34.7z"/>
	<path class="st0" d="M210.7,34.7l5.6,14.2l5.7-14.2h2.7l-7.2,17.9H215l-7-17.9H210.7z"/>
	<path class="st0" d="M225.9,46.3c0-2.7,1.7-4.5,4.5-4.5c0,0,7.5,0,7.5,0c0,0,0-2.2,0-2.3c0-2.1-1.1-2.8-2.8-2.8
		c-2.4,0-5.4,0.2-8.6,0.4v-1.8c2.4-0.7,5.4-1,8.7-1c2.8,0,5.2,1.5,5.2,5.2v13h-1.9l-0.6-2.2c-0.1,0-4.4,2.4-7.5,2.4
		c-2.5,0-4.5-1.6-4.5-4.4V46.3z M230.4,50.3c2.7,0,7.5-1.7,7.5-1.7v-4.8l-7.5,0.5c-1.4,0.1-2,1.1-2,2.2v1.7
		C228.4,49.8,229.2,50.3,230.4,50.3z"/>
	<path class="st0" d="M242.5,35.3l3.3-0.6l0.6-5h1.9v5h5.2v2.5h-5.2v9c0,2.9,0.8,3.6,1.9,3.9c0,0,2.8,0.7,3,0.7v1.8h-3
		c-2.6,0-4.4-1.6-4.4-6.4v-9h-3.3V35.3z"/>
	<path class="st0" d="M264,34.6c6,0,7.9,2.3,7.9,9.4c0,6.6-1.9,8.9-7.9,8.9c-6,0-7.9-2.5-7.9-8.9C256.1,36.6,258.1,34.6,264,34.6z
		 M264,50.3c3.6,0,5.4-0.5,5.4-6.4c0-6.4-1.4-6.9-5.4-6.9c-3.8,0-5.4,0.4-5.4,6.9C258.6,49.9,260.5,50.3,264,50.3z"/>
	<path class="st0" d="M275.4,34.7h1.7l0.7,2.3c2.1-1.2,3.9-2.5,6.7-2.5c1,0,2.1,0.1,2.5,0.3v2.5c-0.4-0.1-1.5-0.2-2.5-0.2
		c-2.7,0-4.1,0.7-6.7,2v13.6h-2.5V34.7z"/>
	<path class="st0" d="M289.3,30c0-0.5,0.3-0.8,0.8-0.8h1.7c0.5,0,0.8,0.4,0.8,0.8v1.8c0,0.5-0.3,0.8-0.8,0.8h-1.7
		c-0.5,0-0.8-0.3-0.8-0.8V30z M289.6,34.7h2.5v17.9h-2.5V34.7z"/>
	<path class="st0" d="M303.6,34.6c6,0,7.9,2.3,7.9,9.4c0,6.6-1.9,8.9-7.9,8.9c-6,0-7.9-2.5-7.9-8.9
		C295.7,36.6,297.7,34.6,303.6,34.6z M303.6,50.3c3.6,0,5.4-0.5,5.4-6.4c0-6.4-1.4-6.9-5.4-6.9c-3.8,0-5.4,0.4-5.4,6.9
		C298.2,49.9,300.1,50.3,303.6,50.3z"/>
	<path class="st0" d="M125.7,67.1c1.5,0,4.4,0.5,6.6,1.3v-9.6h2.5v26.4H133l-0.7-2c-0.9,0.6-4.3,2.2-6.6,2.2c-4.9,0-5.9-4.9-5.9-9.1
		C119.8,71.8,120.6,67.1,125.7,67.1z M125.7,82.9c2.7,0,4.8-0.8,6.6-1.5V70.4c-2.3-0.6-4-0.9-6.6-0.9c-2.2,0-3.4,1.3-3.4,6.8
		C122.3,80.7,123.5,82.9,125.7,82.9z"/>
	<path class="st0" d="M146.1,67.2c4.2,0,6.8,0.4,6.8,6.3c0,2.6-1.4,4.1-4.6,4.1h-7.5c0,4.2,0.8,5.3,3.4,5.3c3.1,0,5.9,0,8.4-0.3v1.9
		c-2.7,0.8-5.6,0.9-8.4,0.9c-4.5,0-5.9-2.2-5.9-9.2C138.3,68.2,140.6,67.2,146.1,67.2z M148.3,75.2c1.5,0,2.1-0.5,2.1-1.7
		c0-3.5-0.7-3.8-4.3-3.8c-3.8,0-5.4,0-5.4,5.5H148.3z"/>
	<path class="st0" d="M166.6,60.6l7.2,20.7l7.5-20.7h2.7l-9.1,24.6h-2.5l-8.7-24.6H166.6z"/>
	<path class="st0" d="M186.5,62.6c0-0.5,0.3-0.8,0.8-0.8h1.7c0.5,0,0.8,0.4,0.8,0.8v1.8c0,0.5-0.3,0.8-0.8,0.8h-1.7
		c-0.5,0-0.8-0.3-0.8-0.8V62.6z M186.8,67.3h2.5v17.9h-2.5V67.3z"/>
	<path class="st0" d="M200.8,67.2c6,0,7.9,2.3,7.9,9.4c0,6.6-1.9,8.9-7.9,8.9c-6,0-7.9-2.5-7.9-8.9C193,69.2,195,67.2,200.8,67.2z
		 M200.8,82.9c3.6,0,5.4-0.5,5.4-6.4c0-6.4-1.4-6.9-5.4-6.9c-3.8,0-5.4,0.4-5.4,6.9C195.5,82.5,197.4,82.9,200.8,82.9z"/>
	<path class="st0" d="M212.3,58.9h2.5v20c0,2.9,0.8,3.6,1.9,3.9c0,0,2.8,0.7,3,0.7v1.8h-3c-2.6,0-4.4-1.6-4.4-6.4V58.9z"/>
	<path class="st0" d="M228,67.2c4.2,0,6.8,0.4,6.8,6.3c0,2.6-1.4,4.1-4.6,4.1h-7.5c0,4.2,0.8,5.3,3.4,5.3c3.1,0,5.9,0,8.4-0.3v1.9
		c-2.7,0.8-5.6,0.9-8.4,0.9c-4.5,0-5.9-2.2-5.9-9.2C220.2,68.2,222.5,67.2,228,67.2z M230.2,75.2c1.5,0,2.1-0.5,2.1-1.7
		c0-3.5-0.7-3.8-4.3-3.8c-3.8,0-5.4,0-5.4,5.5H230.2z"/>
	<path class="st0" d="M238,67.3h1.8l0.7,2.1c2.1-1.2,3.9-2.4,6.6-2.4c3.6,0,5.5,2.8,5.5,5.7v12.5h-2.5V72.8c0-2.2-1.3-3.2-3-3.2
		c-2.7,0-4,0.7-6.6,1.9v13.8H238V67.3z"/>
	<path class="st0" d="M261.4,67.2c1.8,0,5.3,0.4,7.7,0.9v1.8c0,0-4.7-0.2-7.7-0.2c-2,0-3.4,0.4-3.4,6.7c0,5.2,1,6.5,3.4,6.5
		c3.1,0,7.9-0.4,7.9-0.4v1.9c-2.7,0.8-5.1,0.9-7.9,1c-3.3,0-5.9-1.3-5.9-9.1C255.5,68.5,258,67.2,261.4,67.2z"/>
	<path class="st0" d="M272.2,62.6c0-0.5,0.3-0.8,0.8-0.8h1.7c0.5,0,0.8,0.4,0.8,0.8v1.8c0,0.5-0.3,0.8-0.8,0.8H273
		c-0.5,0-0.8-0.3-0.8-0.8V62.6z M272.5,67.3h2.5v17.9h-2.5V67.3z"/>
	<path class="st0" d="M278.3,78.9c0-2.7,1.7-4.5,4.5-4.5c0,0,7.5,0,7.5,0c0,0,0-2.2,0-2.3c0-2.1-1.1-2.8-2.8-2.8
		c-2.4,0-5.4,0.2-8.6,0.4V68c2.4-0.7,5.4-1,8.7-1c2.8,0,5.2,1.5,5.2,5.2v13h-1.9l-0.6-2.2c-0.1,0-4.4,2.4-7.5,2.4
		c-2.5,0-4.5-1.6-4.5-4.4V78.9z M282.8,82.9c2.7,0,7.5-1.7,7.5-1.7v-4.8l-7.5,0.5c-1.4,0.1-2,1.1-2,2.2v1.7
		C280.8,82.4,281.7,82.9,282.8,82.9z"/>
	<path class="st0" d="M310.1,67.2c1.8,0,5.3,0.4,7.7,0.9v1.8c0,0-4.7-0.2-7.7-0.2c-2,0-3.4,0.4-3.4,6.7c0,5.2,1,6.5,3.4,6.5
		c3.1,0,7.9-0.4,7.9-0.4v1.9c-2.7,0.8-5.1,0.9-7.9,1c-3.3,0-5.9-1.3-5.9-9.1C304.2,68.5,306.7,67.2,310.1,67.2z"/>
	<path class="st0" d="M328.1,67.2c6,0,7.9,2.3,7.9,9.4c0,6.6-1.9,8.9-7.9,8.9c-6,0-7.9-2.5-7.9-8.9
		C320.3,69.2,322.3,67.2,328.1,67.2z M328.1,82.9c3.6,0,5.4-0.5,5.4-6.4c0-6.4-1.4-6.9-5.4-6.9c-3.8,0-5.4,0.4-5.4,6.9
		C322.7,82.5,324.7,82.9,328.1,82.9z"/>
	<path class="st0" d="M339.6,67.3h1.7l0.7,2.1c2.1-1.2,3.9-2.4,6.6-2.4c3.6,0,5.5,2.8,5.5,5.7v12.5h-2.5V72.8c0-2.2-1.3-3.2-3-3.2
		c-2.7,0-4,0.7-6.6,1.9v13.8h-2.5V67.3z"/>
	<path class="st0" d="M356,67.9l3.3-0.6l0.6-5h1.9v5h5.2v2.5h-5.2v9c0,2.9,0.8,3.6,1.9,3.9c0,0,2.8,0.7,3,0.7v1.8h-3
		c-2.6,0-4.4-1.6-4.4-6.4v-9H356V67.9z"/>
	<path class="st0" d="M369.9,67.3h1.7l0.7,2.3c2.1-1.2,3.9-2.5,6.7-2.5c1,0,2.1,0.1,2.5,0.3v2.5c-0.4-0.1-1.5-0.2-2.5-0.2
		c-2.7,0-4.1,0.7-6.7,2v13.6h-2.5V67.3z"/>
	<path class="st0" d="M383.5,78.9c0-2.7,1.7-4.5,4.5-4.5c0,0,7.5,0,7.5,0c0,0,0-2.2,0-2.3c0-2.1-1.1-2.8-2.8-2.8
		c-2.4,0-5.4,0.2-8.6,0.4V68c2.4-0.7,5.4-1,8.7-1c2.8,0,5.2,1.5,5.2,5.2v13H396l-0.6-2.2c-0.1,0-4.4,2.4-7.5,2.4
		c-2.5,0-4.5-1.6-4.5-4.4V78.9z M387.9,82.9c2.7,0,7.5-1.7,7.5-1.7v-4.8l-7.5,0.5c-1.4,0.1-2,1.1-2,2.2v1.7
		C385.9,82.4,386.8,82.9,387.9,82.9z"/>
	<path class="st0" d="M409.7,58.9h2.5v20c0,2.9,0.8,3.6,1.9,3.9c0,0,2.8,0.7,3,0.7v1.8h-3c-2.6,0-4.4-1.6-4.4-6.4V58.9z"/>
	<path class="st0" d="M418.6,78.9c0-2.7,1.7-4.5,4.5-4.5c0,0,7.5,0,7.5,0c0,0,0-2.2,0-2.3c0-2.1-1.1-2.8-2.8-2.8
		c-2.4,0-5.4,0.2-8.6,0.4V68c2.4-0.7,5.4-1,8.7-1c2.8,0,5.2,1.5,5.2,5.2v13h-1.9l-0.6-2.2c-0.1,0-4.4,2.4-7.5,2.4
		c-2.5,0-4.5-1.6-4.5-4.4V78.9z M423.1,82.9c2.7,0,7.5-1.7,7.5-1.7v-4.8l-7.5,0.5c-1.4,0.1-2,1.1-2,2.2v1.7
		C421.1,82.4,422,82.9,423.1,82.9z"/>
	<path class="st0" d="M435.9,71.6c0-2.8,1.2-4.4,4.6-4.4c1.7,0,7,0.4,8.8,0.5v1.9h-8.8c-2.2,0-2.2,0.8-2.2,2v1.5
		c0,1.9,0.9,1.9,2.2,1.9h5.3c2.9,0,4.4,1.8,4.4,4.3v1.6c0,3.7-2.2,4.3-4.4,4.3c-1.7,0-7.9-0.5-9.2-0.6v-1.9h9.2c0,0,1.9,0.2,1.9-1.8
		v-1.6c0-1.2-0.4-1.9-1.9-1.9h-5.3c-3.2,0-4.6-0.9-4.6-4.4V71.6z"/>
	<path class="st0" d="M463.2,60.6h3.4l6.6,20.5l6.4-20.5h3.4l1.9,24.6h-2.5l-1.5-20.1l-6.3,20.1H472l-6.5-20.1l-1.3,20.1h-2.5
		L463.2,60.6z"/>
	<path class="st0" d="M488.2,67.3h2.5v12.5c0,2.2,1.3,3.2,3,3.2c2.7,0,4-0.7,6.6-1.9V67.3h2.5v17.9h-1.7l-0.7-2.1
		c-2.1,1.2-3.9,2.4-6.6,2.4c-3.6,0-5.5-2.8-5.5-5.7V67.3z"/>
	<path class="st0" d="M506.7,62.6c0-0.5,0.3-0.8,0.8-0.8h1.7c0.5,0,0.8,0.4,0.8,0.8v1.8c0,0.5-0.3,0.8-0.8,0.8h-1.7
		c-0.5,0-0.8-0.3-0.8-0.8V62.6z M507.1,67.3h2.5v18c0,2.9,0,6.3-0.9,9h-1.6V67.3z"/>
	<path class="st0" d="M521.4,67.2c4.2,0,6.8,0.4,6.8,6.3c0,2.6-1.4,4.1-4.6,4.1H516c0,4.2,0.8,5.3,3.4,5.3c3.1,0,5.9,0,8.4-0.3v1.9
		c-2.7,0.8-5.6,0.9-8.4,0.9c-4.5,0-5.9-2.2-5.9-9.2C513.5,68.2,515.8,67.2,521.4,67.2z M523.6,75.2c1.5,0,2.1-0.5,2.1-1.7
		c0-3.5-0.7-3.8-4.3-3.8c-3.8,0-5.4,0-5.4,5.5H523.6z"/>
	<path class="st0" d="M531.4,67.3h1.8l0.7,2.3c2.1-1.2,3.9-2.5,6.7-2.5c1,0,2.1,0.1,2.5,0.3v2.5c-0.4-0.1-1.5-0.2-2.5-0.2
		c-2.7,0-4.1,0.7-6.7,2v13.6h-2.5V67.3z"/>
	<path class="st0" d="M552.4,67.2c4.2,0,6.8,0.4,6.8,6.3c0,2.6-1.4,4.1-4.6,4.1h-7.5c0,4.2,0.8,5.3,3.4,5.3c3.1,0,5.9,0,8.4-0.3v1.9
		c-2.7,0.8-5.6,0.9-8.4,0.9c-4.5,0-5.9-2.2-5.9-9.2C544.6,68.2,546.9,67.2,552.4,67.2z M554.6,75.2c1.5,0,2.1-0.5,2.1-1.7
		c0-3.5-0.7-3.8-4.3-3.8c-3.8,0-5.4,0-5.4,5.5H554.6z"/>
	<path class="st0" d="M561.8,71.6c0-2.8,1.2-4.4,4.6-4.4c1.7,0,7,0.4,8.8,0.5v1.9h-8.8c-2.2,0-2.2,0.8-2.2,2v1.5
		c0,1.9,0.9,1.9,2.2,1.9h5.3c2.9,0,4.4,1.8,4.4,4.3v1.6c0,3.7-2.2,4.3-4.4,4.3c-1.6,0-7.9-0.5-9.2-0.6v-1.9h9.2c0,0,1.9,0.2,1.9-1.8
		v-1.6c0-1.2-0.4-1.9-1.9-1.9h-5.3c-3.2,0-4.6-0.9-4.6-4.4V71.6z"/>
</g>
</svg>
